<svg xmlns="http://www.w3.org/2000/svg" width="124" height="124" viewBox="0 0 124 124"><defs><style>.cls-1 { fill: #333; fill-rule: evenodd; }</style></defs><path id="_1" data-name="1" class="cls-1" d="M61.334 94a32 32 0 1 0-32-32 32.037 32.037 0 0 0 32 32zm0-60a28 28 0 1 1-28 28 28.03 28.03 0 0 1 28-28zM60 20a2 2 0 0 0 2-2V2a2 2 0 0 0-4 0v16a2 2 0 0 0 2 2zm2 102v-16a2 2 0 0 0-4 0v16a2 2 0 0 0 4 0zM20 64a2 2 0 0 0-2-2H2a2 2 0 0 0 0 4h16a2 2 0 0 0 2-2zm102-2h-16a2 2 0 0 0 0 4h16a2 2 0 0 0 0-4zM20.988 105.84L32.3 94.527a2 2 0 0 0-2.828-2.828L18.16 103.01a2 2 0 0 0 2.828 2.83zm72.125-72.954a1.99 1.99 0 0 0 1.414-.586l11.313-11.312a2 2 0 0 0-2.83-2.828L91.7 29.472a2 2 0 0 0 1.413 3.414zM94.527 91.7a2 2 0 0 0-2.828 2.827l11.31 11.313a2 2 0 1 0 2.83-2.83zM29.473 32.3a2 2 0 1 0 2.828-2.828L20.99 18.16a2 2 0 0 0-2.828 2.828z"/></svg>