<svg xmlns="http://www.w3.org/2000/svg" width="103.813" height="79.875" viewBox="0 0 103.813 79.875"><defs><style>.cls-1 { fill: #333; fill-rule: evenodd; }</style></defs><path id="_10" data-name="10" class="cls-1" d="M82.74 34.885A22.168 22.168 0 0 0 51.9 21.03a25.926 25.926 0 0 0-7.267-14 26.5 26.5 0 0 0-12.9-7 2.01 2.01 0 0 0-1.876.537 1.982 1.982 0 0 0-.543 1.85 21.88 21.88 0 0 1-6 20.565 22.56 22.56 0 0 1-20.83 5.925 2.023 2.023 0 0 0-1.877.536 1.983 1.983 0 0 0-.543 1.852 25.987 25.987 0 0 0 7.09 12.74 26.468 26.468 0 0 0 5.624 4.136 22.075 22.075 0 0 0-2.038 9.2c0 12.2 10.193 22.516 22.258 22.516H81.56c12.066 0 22.258-10.31 22.258-22.515A22.732 22.732 0 0 0 82.74 34.886zm-72.733 6.323a22.008 22.008 0 0 1-5.126-7.88 26.48 26.48 0 0 0 21.287-7.523A25.806 25.806 0 0 0 33.79 4.793a22.35 22.35 0 0 1 7.98 5.06 21.982 21.982 0 0 1 6.39 13.374 21.89 21.89 0 0 0-8.432 12.684 22.007 22.007 0 0 0-6.738-1.06 22.36 22.36 0 0 0-18.257 9.842 22.473 22.473 0 0 1-4.726-3.484zm71.545 34.68H32.994c-9.872 0-18.21-8.482-18.21-18.52s8.338-18.522 18.21-18.522a18.2 18.2 0 0 1 7.48 1.63 2.056 2.056 0 0 0 1.84-.085 2 2 0 0 0 1.01-1.515 18.186 18.186 0 0 1 35.846-1.59 2.017 2.017 0 0 0 1.983 1.6 1.19 1.19 0 0 0 .4-.042c9.872 0 18.21 8.482 18.21 18.52s-8.34 18.525-18.21 18.525z"/></svg>