<svg xmlns="http://www.w3.org/2000/svg" width="103.813" height="99.969" viewBox="0 0 103.813 99.969"><defs><style>.cls-1 { fill: #333; fill-rule: evenodd; }</style></defs><path id="_11" data-name="11" class="cls-1" d="M82.74 34.59A22.252 22.252 0 0 0 51.9 20.86a25.627 25.627 0 0 0-7.267-13.88 26.567 26.567 0 0 0-12.9-6.937 2.035 2.035 0 0 0-1.876.532 1.95 1.95 0 0 0-.543 1.834 21.564 21.564 0 0 1-6 20.382 22.684 22.684 0 0 1-20.83 5.874 2.03 2.03 0 0 0-1.876.53 1.954 1.954 0 0 0-.544 1.836 25.7 25.7 0 0 0 7.09 12.627 26.437 26.437 0 0 0 5.68 4.132 22.14 22.14 0 0 0-2.093 9.328c0 12.23 10.193 22.56 22.258 22.56H81.56c12.066 0 22.258-10.33 22.258-22.56A22.76 22.76 0 0 0 82.74 34.59zm-72.733 6.27a21.8 21.8 0 0 1-5.126-7.812 26.65 26.65 0 0 0 21.287-7.457A25.447 25.447 0 0 0 33.79 4.765a22.377 22.377 0 0 1 7.98 5.017 21.7 21.7 0 0 1 6.39 13.258 21.692 21.692 0 0 0-8.432 12.572 21.9 21.9 0 0 0-24.94 8.737 22.466 22.466 0 0 1-4.78-3.487zm71.546 34.86h-48.56c-9.87 0-18.21-8.518-18.21-18.6s8.34-18.6 18.21-18.6a18.342 18.342 0 0 1 7.482 1.614 2.076 2.076 0 0 0 1.838-.084 1.974 1.974 0 0 0 1.01-1.5 18.213 18.213 0 0 1 35.847-1.578 1.98 1.98 0 0 0 2.04 1.59 1.583 1.583 0 0 0 .347-.04c9.87 0 18.21 8.518 18.21 18.6s-8.343 18.597-18.214 18.597zM14.906 99.387l10.105-9.885a1.95 1.95 0 0 0 0-2.8 2.055 2.055 0 0 0-2.86 0L12.044 96.59a1.95 1.95 0 0 0 0 2.8 2.053 2.053 0 0 0 2.862-.002zm16.187 0l10.105-9.885a1.95 1.95 0 0 0 0-2.8 2.055 2.055 0 0 0-2.86 0L28.23 96.59a1.95 1.95 0 0 0 0 2.8 2.052 2.052 0 0 0 2.862-.002zm16.187 0l10.106-9.885a1.95 1.95 0 0 0 0-2.8 2.055 2.055 0 0 0-2.86 0L44.418 96.59a1.95 1.95 0 0 0 0 2.8 2.052 2.052 0 0 0 2.86-.002zm16.188 0l10.105-9.885a1.95 1.95 0 0 0 0-2.8 2.055 2.055 0 0 0-2.86 0L60.606 96.59a1.947 1.947 0 0 0 0 2.8 2.052 2.052 0 0 0 2.86-.002z"/></svg>