<svg xmlns="http://www.w3.org/2000/svg" width="91.75" height="91.75" viewBox="0 0 91.75 91.75"><defs><style>.cls-1 { fill: #333; fill-rule: evenodd; }</style></defs><path id="_12" data-name="12" class="cls-1" d="M88.35.573L61.382 27.83a31.993 31.993 0 0 0-7.842-13.26 31.573 31.573 0 0 0-15.487-8.6 1.948 1.948 0 0 0-1.842.54 2.024 2.024 0 0 0-.533 1.862 28.216 28.216 0 0 1-7.443 26.1 27.515 27.515 0 0 1-25.816 7.522 1.95 1.95 0 0 0-1.843.54 2.03 2.03 0 0 0-.534 1.862 32.14 32.14 0 0 0 8.512 15.658 31.514 31.514 0 0 0 13.118 7.928L1.556 88.316a2.024 2.024 0 0 0 0 2.842 1.97 1.97 0 0 0 2.81 0l22.41-22.652c.018-.015.033-.036.05-.052l64.337-65.04a2.024 2.024 0 0 0 0-2.84 1.97 1.97 0 0 0-2.813 0zm-76.987 56.64A28.017 28.017 0 0 1 4.75 46.476a31.38 31.38 0 0 0 26.3-9.163 32.18 32.18 0 0 0 9.066-26.583 27.6 27.6 0 0 1 10.617 6.686 28.048 28.048 0 0 1 7.414 13.694l-33.233 33.6a27.587 27.587 0 0 1-13.55-7.498z"/></svg>