<svg xmlns="http://www.w3.org/2000/svg" width="107.844" height="107.938" viewBox="0 0 107.844 107.938"><defs><style>.cls-1 { fill: #333; fill-rule: evenodd; }</style></defs><path id="_13" data-name="13" class="cls-1" d="M57.682 2.016v16.11a1.99 1.99 0 1 0 3.978 0V2.016a1.99 1.99 0 1 0-3.978 0zM19.89 64.44a2 2 0 0 0-1.99-2.014H1.987a2.014 2.014 0 0 0 0 4.028H17.9a2 2 0 0 0 1.99-2.014zm84.562-47.833L81.936 39.4A31.36 31.36 0 0 0 60.56 31a32.262 32.262 0 0 0-23.53 53.86l-19.41 19.65a2.03 2.03 0 0 0 0 2.848 1.97 1.97 0 0 0 2.813 0L39.77 87.78a31.572 31.572 0 0 0 20.008 7.2 32.06 32.06 0 0 0 31.826-32.218 32.408 32.408 0 0 0-7.113-20.25l22.772-23.057a2.03 2.03 0 0 0 0-2.848 1.97 1.97 0 0 0-2.81 0zM32.712 63.22a28.053 28.053 0 0 1 27.85-28.193 27.433 27.433 0 0 1 18.564 7.22L39.843 82.015A28.113 28.113 0 0 1 32.71 63.22zM17.62 19.08a2.03 2.03 0 0 0 0 2.847l11.253 11.39a1.97 1.97 0 0 0 2.813 0 2.03 2.03 0 0 0 0-2.848L20.433 19.08a1.972 1.972 0 0 0-2.813 0z"/></svg>