<svg xmlns="http://www.w3.org/2000/svg" width="104" height="88.063" viewBox="0 0 104 88.063"><defs><style>.cls-1 { fill: #333; fill-rule: evenodd; }</style></defs><path id="_15" data-name="15" class="cls-1" d="M22.016 72.234h48c11.925 0 22-10.2 22-22.268a21.5 21.5 0 0 0-.687-5.135 16.695 16.695 0 0 0-3.04-32.872 16.96 16.96 0 0 0-32.62.714 21.657 21.657 0 0 0-26.994 16.076 21.69 21.69 0 0 0-6.66-1.05c-11.926 0-22 10.2-22 22.268s10.074 22.268 22 22.268zm50-68.288a12.99 12.99 0 0 1 12.738 10.316 2.246 2.246 0 0 0 2.262 1.56 12.786 12.786 0 0 1 3.044 25.253A22.362 22.362 0 0 0 71.188 27.73 21.838 21.838 0 0 0 59.45 14.043 12.865 12.865 0 0 1 72.016 3.946zm-50 27.71a18 18 0 0 1 7.4 1.615 2.028 2.028 0 0 0 1.817-.082 1.987 1.987 0 0 0 1-1.5 17.967 17.967 0 0 1 35.43-1.575 1.994 1.994 0 0 0 2.02 1.59 1.6 1.6 0 0 0 .34-.042c9.757 0 18 8.387 18 18.31s-8.243 18.31-18 18.31h-48c-9.76 0-18-8.386-18-18.31s8.235-18.313 17.993-18.313zm-2 48.5h48a1.98 1.98 0 1 0 0-3.958h-48a1.98 1.98 0 1 0 0 3.954zm0 7.918h48a1.98 1.98 0 1 0 0-3.96h-48a1.98 1.98 0 1 0 0 3.955z"/></svg>