<svg xmlns="http://www.w3.org/2000/svg" width="104" height="91.843" viewBox="0 0 104 91.843"><defs><style>.cls-1 { fill: #333; fill-rule: evenodd; }</style></defs><path id="_16" data-name="16" class="cls-1" d="M10.445 32.804a2.06 2.06 0 0 0 1.118 2.65 1.98 1.98 0 0 0 .742.147 2 2 0 0 0 1.86-1.286 27.876 27.876 0 0 1 26.015-17.99 2.04 2.04 0 0 0 0-4.08 31.868 31.868 0 0 0-29.735 20.56zM3.563 23.21a1.98 1.98 0 0 0 .742.146 2 2 0 0 0 1.86-1.286A27.875 27.875 0 0 1 32.18 4.08a2.04 2.04 0 0 0 0-4.08A31.868 31.868 0 0 0 2.445 20.56a2.06 2.06 0 0 0 1.118 2.65zm18.453 68.624h48c11.72 0 22-11.443 22-24.49a25.214 25.214 0 0 0-.935-6.767 17.29 17.29 0 0 0-2.79-33.95 16.825 16.825 0 0 0-32.62.734 21.314 21.314 0 0 0-5.654-.832 22.01 22.01 0 0 0-21.347 17.41 21.073 21.073 0 0 0-6.657-1.083c-11.72 0-22 11.443-22 24.49s10.284 24.49 22.003 24.49zm50-73.47a13.093 13.093 0 0 1 12.738 10.638 2.422 2.422 0 0 0 2.262 1.608 13.223 13.223 0 0 1 2.648 26.13c-3.516-7.684-10.586-13.334-18.473-13.847a22.343 22.343 0 0 0-11.74-14.118 12.96 12.96 0 0 1 12.566-10.41zm-50 28.572A17.516 17.516 0 0 1 29.41 48.6a1.952 1.952 0 0 0 1.813-.085 2.042 2.042 0 0 0 1-1.55 17.89 17.89 0 0 1 35.433-1.625 2.032 2.032 0 0 0 2.02 1.638 1.525 1.525 0 0 0 .34-.042c10.3 0 18 10.774 18 20.41s-7.7 20.407-18 20.407h-48c-10.3 0-18-10.774-18-20.408s7.7-20.41 18-20.41z"/></svg>