<svg xmlns="http://www.w3.org/2000/svg" width="67.593" height="95.844" viewBox="0 0 67.593 95.844"><defs><style>.cls-1 { fill: #333; fill-rule: evenodd; }</style></defs><path id="_17" data-name="17" class="cls-1" d="M2.04 55.81a2.02 2.02 0 0 0 2.05-1.993c0-15.878 13.3-28.8 29.653-28.8S63.4 37.934 63.4 53.817a2.052 2.052 0 0 0 4.1 0c0-18.074-15.144-32.778-33.76-32.778S-.012 35.74-.012 53.816A2.02 2.02 0 0 0 2.04 55.81zm29.7 2.06a2.02 2.02 0 0 0-2.05 1.99v23.114A13.11 13.11 0 0 0 43.01 95.83c7.506 0 14.877-6.712 14.877-13.55a2.052 2.052 0 0 0-4.1 0c0 4.65-5.54 9.567-10.776 9.567a9.06 9.06 0 0 1-9.217-8.873V59.86a2.02 2.02 0 0 0-2.057-1.99zM7.525 13.336l10.24-9.947a1.95 1.95 0 0 0 0-2.816 2.1 2.1 0 0 0-2.9 0L4.624 10.52a1.95 1.95 0 0 0 0 2.817 2.093 2.093 0 0 0 2.896 0zm16.408 0l10.24-9.947a1.95 1.95 0 0 0 0-2.816 2.1 2.1 0 0 0-2.9 0l-10.24 9.947a1.95 1.95 0 0 0 0 2.817 2.093 2.093 0 0 0 2.896 0zm16.408 0L50.58 3.39a1.95 1.95 0 0 0 0-2.816 2.1 2.1 0 0 0-2.9 0L37.44 10.52a1.95 1.95 0 0 0 0 2.817 2.093 2.093 0 0 0 2.897 0zm16.41 0L66.987 3.39a1.95 1.95 0 0 0 0-2.816 2.093 2.093 0 0 0-2.9 0l-10.24 9.947a1.95 1.95 0 0 0 0 2.817 2.092 2.092 0 0 0 2.897 0z"/></svg>