<svg xmlns="http://www.w3.org/2000/svg" width="92" height="91.906" viewBox="0 0 92 91.906"><defs><style>.cls-1 { fill: #333; fill-rule: evenodd; }</style></defs><path id="_18" data-name="18" class="cls-1" d="M22.016 65.662h48c12.59 0 22-13.066 22-24.748 0-11.316-8.828-23.93-20.825-24.71a21.883 21.883 0 0 0-42.514 1.034 21.3 21.3 0 0 0-6.66-1.07c-12.59 0-22 13.065-22 24.746s9.41 24.748 22 24.748zm0-45.455a17.692 17.692 0 0 1 7.4 1.648 1.982 1.982 0 0 0 1.817-.085 2.03 2.03 0 0 0 1-1.535 17.913 17.913 0 0 1 35.43-1.608 2.077 2.077 0 0 0 2.02 1.622 1.517 1.517 0 0 0 .34-.043c10.136 0 18 11.13 18 20.707s-7.864 20.707-18 20.707h-48c-10.138 0-18-11.13-18-20.706s7.856-20.712 17.993-20.712zm4 53.536v16.16a2 2 0 1 0 4 0V73.74a2 2 0 1 0-4 0zm24 0v16.16a2 2 0 1 0 4 0V73.74a2 2 0 1 0-4 0zm-12 0v8.08a2 2 0 1 0 4 0v-8.08a2 2 0 1 0-4-.005zm24 0v8.08a2 2 0 1 0 4 0v-8.08a2 2 0 1 0-4-.005z"/></svg>