<svg xmlns="http://www.w3.org/2000/svg" width="95.875" height="92" viewBox="0 0 95.875 92"><defs><style>.cls-1 { fill: #333; fill-rule: evenodd; }</style></defs><path id="_19" data-name="19" class="cls-1" d="M95.88 39.015c0-12.056-9.316-22.3-20.592-22.966a21.626 21.626 0 0 0-42.032 1.026 21.036 21.036 0 0 0-6.584-1.06c-11.79 0-21.75 10.533-21.75 23s9.96 23 21.75 23h47.455c11.792 0 21.752-10.534 21.752-23zm-87 0c0-10.3 8.147-19 17.8-19a17.442 17.442 0 0 1 7.31 1.63 1.967 1.967 0 0 0 1.8-.083 2 2 0 0 0 .986-1.518 17.706 17.706 0 0 1 35.028-1.593 1.906 1.906 0 0 0 1.994 1.607 1.588 1.588 0 0 0 .34-.042c9.647 0 17.8 8.7 17.8 19s-8.15 19-17.8 19H26.675c-9.647 0-17.796-8.7-17.796-19zM23.13 68.6a1.96 1.96 0 0 0-2.8 0l-9.874 9.99a2.016 2.016 0 0 0 0 2.828 1.96 1.96 0 0 0 2.8 0l9.875-9.99a2.016 2.016 0 0 0 0-2.828zm15.818 0a1.96 1.96 0 0 0-2.8 0l-9.875 9.99a2.015 2.015 0 0 0 0 2.827 1.96 1.96 0 0 0 2.8 0l9.875-9.99a2.016 2.016 0 0 0 0-2.827zm15.82 0a1.96 1.96 0 0 0-2.8 0l-9.876 9.99a2.016 2.016 0 0 0 0 2.827 1.96 1.96 0 0 0 2.8 0l9.875-9.99a2.016 2.016 0 0 0 0-2.827zm13.02 0l-9.874 9.99a2.016 2.016 0 0 0 0 2.827 1.96 1.96 0 0 0 2.8 0l9.875-9.99a2.016 2.016 0 0 0 0-2.827 1.96 1.96 0 0 0-2.802 0zm-15.817 16l-3.954 4a2.016 2.016 0 0 0 0 2.828 1.96 1.96 0 0 0 2.8 0l3.955-4a2.016 2.016 0 0 0 0-2.828 1.96 1.96 0 0 0-2.8 0zm-15.814 0l-3.955 4a2.016 2.016 0 0 0 0 2.828 1.96 1.96 0 0 0 2.8 0l3.955-4a2.016 2.016 0 0 0 0-2.828 1.96 1.96 0 0 0-2.8 0zm-15.818 0l-3.955 4a2.015 2.015 0 0 0 0 2.828 1.96 1.96 0 0 0 2.8 0l3.955-4a2.016 2.016 0 0 0 0-2.828 1.96 1.96 0 0 0-2.805 0zm-15.818 0l-3.955 4a2.015 2.015 0 0 0 0 2.828 1.96 1.96 0 0 0 2.8 0l3.954-4a2.015 2.015 0 0 0 0-2.828 1.96 1.96 0 0 0-2.805 0z"/></svg>