<svg xmlns="http://www.w3.org/2000/svg" width="92" height="96.062" viewBox="0 0 92 96.062"><defs><style>.cls-1 { fill: #333; fill-rule: evenodd; }</style></defs><path id="_20" data-name="20" class="cls-1" d="M71.19 15.886A21.984 21.984 0 0 0 28.677 16.9a21.67 21.67 0 0 0-6.66-1.05c-11.72 0-22 11.193-22 23.956s10.28 23.954 22 23.954h48c11.72 0 22-11.194 22-23.954 0-12.333-9.602-23.204-20.825-23.92zm-1.174 43.91h-48c-10.3 0-18-10.554-18-19.99s7.7-19.992 18-19.992a17.95 17.95 0 0 1 7.394 1.616 2.027 2.027 0 0 0 1.817-.083 1.982 1.982 0 0 0 1-1.5 17.964 17.964 0 0 1 35.432-1.58 1.994 1.994 0 0 0 1.96 1.592 1.446 1.446 0 0 0 .4-.042c10.3 0 18 10.555 18 19.992s-7.7 19.985-18.004 19.985zM31.932 95.473a2.01 2.01 0 0 0 2.828.008l12.666-12.474a1.967 1.967 0 0 0 .44-2.16 2 2 0 0 0-1.85-1.228H40.89l8.387-8.434a1.97 1.97 0 0 0-.02-2.8 2.012 2.012 0 0 0-2.827.02L34.684 80.21a1.97 1.97 0 0 0-.422 2.157 2 2 0 0 0 1.845 1.218h5.062l-9.225 9.086a1.97 1.97 0 0 0-.013 2.804z"/></svg>