<svg xmlns="http://www.w3.org/2000/svg" width="92" height="99.969" viewBox="0 0 92 99.969"><defs><style>.cls-1 { fill: #333; fill-rule: evenodd; }</style></defs><path id="_21" data-name="21" class="cls-1" d="M71.19 16.136a21.906 21.906 0 0 0-42.514 1.03 21.392 21.392 0 0 0-6.66-1.066c-11.926 0-22 10.667-22 23.294s10.074 23.29 22 23.29h48c11.925 0 22-10.666 22-23.29 0-12.21-9.422-22.587-20.826-23.258zm-1.174 42.528h-48c-9.588 0-18-9.006-18-19.27s8.412-19.272 18-19.272a17.743 17.743 0 0 1 7.394 1.64 2 2 0 0 0 2.815-1.61 17.926 17.926 0 0 1 35.432-1.6 2 2 0 0 0 1.96 1.614.924.924 0 0 0 .4-.042c9.588 0 18 9.006 18 19.272s-8.413 19.268-18 19.268zM27.96 99.404a1.993 1.993 0 0 0 2.827-.046l12.666-13.155a2.012 2.012 0 0 0-1.437-3.41H37.2l8.015-7.487a2.02 2.02 0 0 0 .1-2.842 2 2 0 0 0-2.827-.1l-11.746 10.97a2.012 2.012 0 0 0 1.36 3.484h5.19l-9.384 9.746a2.018 2.018 0 0 0 .05 2.84zm28.48-15.536l9.99-10.043a2.018 2.018 0 0 0 0-2.843 1.992 1.992 0 0 0-2.828 0l-9.99 10.042a2.02 2.02 0 0 0 0 2.844 1.992 1.992 0 0 0 2.83 0zm-40 0l9.99-10.043a2.018 2.018 0 0 0 0-2.843 1.992 1.992 0 0 0-2.828 0l-9.99 10.042a2.02 2.02 0 0 0 0 2.844 1.992 1.992 0 0 0 2.83 0z"/></svg>