<svg xmlns="http://www.w3.org/2000/svg" width="91.875" height="99.969" viewBox="0 0 91.875 99.969"><defs><style>.cls-1 { fill: #333; fill-rule: evenodd; }</style></defs><path id="_22" data-name="22" class="cls-1" d="M71.31 16.136a21.588 21.588 0 0 0-42.012 1.03 20.91 20.91 0 0 0-6.582-1.066C10.932 16.1.976 26.767.976 39.394s9.956 23.29 21.74 23.29H70.15c11.784 0 21.74-10.666 21.74-23.29 0-12.21-9.31-22.587-20.58-23.258zm-1.16 42.528H22.72c-9.475 0-17.788-9.006-17.788-19.27s8.313-19.272 17.787-19.272a17.367 17.367 0 0 1 7.307 1.64 1.95 1.95 0 0 0 1.8-.085 2.013 2.013 0 0 0 .986-1.526 17.685 17.685 0 0 1 35.013-1.6 1.985 1.985 0 0 0 1.938 1.616.883.883 0 0 0 .394-.042c9.474 0 17.787 9.006 17.787 19.272s-8.32 19.268-17.795 19.268zm-45.513 40.74a1.953 1.953 0 0 0 2.795-.046l12.516-13.155a2.037 2.037 0 0 0 .4-2.184 1.977 1.977 0 0 0-1.82-1.226h-4.76l7.922-7.488a2.035 2.035 0 0 0 .1-2.842 1.954 1.954 0 0 0-2.793-.1L27.39 83.334a2.035 2.035 0 0 0-.494 2.208 1.977 1.977 0 0 0 1.84 1.276h5.126l-9.272 9.746a2.034 2.034 0 0 0 .047 2.84zm32.1-15.536l9.87-10.043a2.034 2.034 0 0 0 0-2.843 1.953 1.953 0 0 0-2.795 0l-9.87 10.042a2.036 2.036 0 0 0 0 2.844 1.952 1.952 0 0 0 2.794 0zm-9.894 10.066l3.953-4.022a2.034 2.034 0 0 0 0-2.843 1.95 1.95 0 0 0-2.8 0l-3.952 4.02a2.036 2.036 0 0 0 0 2.844 1.95 1.95 0 0 0 2.798 0zM13.256 83.868l9.87-10.043a2.034 2.034 0 0 0 0-2.843 1.953 1.953 0 0 0-2.8 0l-9.87 10.042a2.036 2.036 0 0 0 0 2.844 1.95 1.95 0 0 0 2.8 0zM3.363 93.934l3.953-4.022a2.034 2.034 0 0 0 0-2.843 1.95 1.95 0 0 0-2.795 0L.57 91.09a2.036 2.036 0 0 0 0 2.844 1.952 1.952 0 0 0 2.794 0z"/></svg>