<svg xmlns="http://www.w3.org/2000/svg" width="92" height="91.844" viewBox="0 0 92 91.844"><defs><style>.cls-1 { fill: #333; fill-rule: evenodd; }</style></defs><path id="_23" data-name="23" class="cls-1" d="M22.016 65.317h48c11.72 0 22-11.444 22-24.49 0-12.608-9.6-23.72-20.825-24.452a21.832 21.832 0 0 0-42.514 1.044 21.115 21.115 0 0 0-6.66-1.083c-11.72 0-22 11.444-22 24.49s10.28 24.49 22 24.49zm0-44.9a17.517 17.517 0 0 1 7.395 1.664 1.96 1.96 0 0 0 1.817-.085 2.04 2.04 0 0 0 1-1.55 17.89 17.89 0 0 1 35.43-1.627 2.066 2.066 0 0 0 2.02 1.64 1.58 1.58 0 0 0 .34-.04c10.3 0 18 10.772 18 20.407s-7.7 20.408-18 20.408h-48c-10.3 0-18-10.774-18-20.408s7.696-20.406 18-20.406zm10 61.224a2 2 0 1 0 2-2.04 2.02 2.02 0 0 0-2 2.043zm20 0a2 2 0 1 0 2-2.04 2.02 2.02 0 0 0-2 2.043zm-4-8.162a2 2 0 1 0-2 2.04 2.02 2.02 0 0 0 2-2.038zm16 0a2 2 0 1 0 2-2.04 2.02 2.02 0 0 0-2 2.042zm-20 16.327a2 2 0 1 0-2 2.04 2.02 2.02 0 0 0 2-2.04zm-20-16.327a2 2 0 1 0 2-2.04 2.02 2.02 0 0 0-2 2.042z"/></svg>