<svg xmlns="http://www.w3.org/2000/svg" width="92" height="99.937" viewBox="0 0 92 99.937"><defs><style>.cls-1 { fill: #333; fill-rule: evenodd; }</style></defs><path id="_24" data-name="24" class="cls-1" d="M30.684 71.192a2 2 0 1 0-4 0v16.17a2 2 0 1 0 4 0v-16.17zm24 0a2 2 0 1 0-4 0v16.17a2 2 0 1 0 4 0v-16.17zm-12 0a2 2 0 1 0-4 0v8.087a2 2 0 1 0 4 0V71.19zm24 0a2 2 0 1 0-4 0v8.087a2 2 0 1 0 4 0V71.19zm25.332-31.548c0-12.3-9.422-22.75-20.824-23.427a21.88 21.88 0 0 0-42.516 1.037 21.272 21.272 0 0 0-6.66-1.072c-11.926 0-22 10.744-22 23.462s10.074 23.462 22 23.462h48c11.926 0 22-10.744 22-23.462zm-88 0c0-10.345 8.41-19.42 18-19.42a17.692 17.692 0 0 1 7.4 1.65 1.967 1.967 0 0 0 1.813-.085 2.026 2.026 0 0 0 1-1.535 17.91 17.91 0 0 1 35.43-1.613 2.026 2.026 0 0 0 2.018 1.625 1.58 1.58 0 0 0 .34-.042c9.59 0 18 9.074 18 19.42s-8.41 19.418-18 19.418h-48c-9.592 0-18.002-9.074-18.002-19.42zm36.387 48.148a2.022 2.022 0 1 0 2 2.022 2.01 2.01 0 0 0-2-2.022zm24 0a2.022 2.022 0 1 0 2 2.022 2.01 2.01 0 0 0-2-2.022zm-12 8.087a2.022 2.022 0 1 0 2 2.02 2.01 2.01 0 0 0-2-2.02zm-24 0a2.022 2.022 0 1 0 2 2.02 2.01 2.01 0 0 0-2-2.02z"/></svg>