<svg xmlns="http://www.w3.org/2000/svg" width="103.75" height="72.03" viewBox="0 0 103.75 72.03"><defs><style>.cls-1 { fill: #333; fill-rule: evenodd; }</style></defs><path id="_25" data-name="25" class="cls-1" d="M91.305-.02a1.985 1.985 0 1 0 0 3.97c5.036 0 8.417 5.15 8.417 9.96 0 5.17-4.263 9.89-8.946 9.89H41.812a1.985 1.985 0 1 0 0 3.97h48.964c6.907 0 12.963-6.48 12.963-13.86 0-6.73-4.998-13.93-12.435-13.93zM87.29 55.75a1.985 1.985 0 1 0 0 3.97c6.855 0 12.432-6.17 12.432-13.74 0-6.72-5.54-14.24-12.962-14.24H17.715a1.99 1.99 0 1 0 0 3.98h69.047c5.04 0 8.946 5.51 8.946 10.26-.002 4.71-3.383 9.77-8.42 9.77zM32.324 44.29a2.024 2.024 0 0 0-2.84.02L17.693 56.17a1.984 1.984 0 0 0-.42 2.17 2.016 2.016 0 0 0 1.852 1.21H24.2l-9.26 9.09a1.972 1.972 0 0 0-.01 2.81 2.015 2.015 0 0 0 1.425.59 2.044 2.044 0 0 0 1.416-.58l12.72-12.48a1.976 1.976 0 0 0 .44-2.17 2.014 2.014 0 0 0-1.855-1.23h-5.16l8.434-8.48a1.972 1.972 0 0 0-.025-2.81zm18.422-2.42l-10.03 9.92a1.972 1.972 0 0 0 0 2.81 2.028 2.028 0 0 0 2.84 0l10.03-9.92a1.97 1.97 0 0 0 0-2.81 2.015 2.015 0 0 0-2.84 0zm-40.163 0L.554 51.79a1.972 1.972 0 0 0 0 2.81 2.028 2.028 0 0 0 2.84 0l10.03-9.92a1.97 1.97 0 0 0 0-2.81 2.015 2.015 0 0 0-2.84 0z"/></svg>