<svg xmlns="http://www.w3.org/2000/svg" width="108" height="60.03" viewBox="0 0 108 60.03"><defs><style>.cls-1 { fill: #333; fill-rule: evenodd; }</style></defs><path id="_26" data-name="26" class="cls-1" d="M27.957 17.41a1.992 1.992 0 0 0 2 1.99H77.88a2 2 0 1 0 0-3.99H29.955a2 2 0 0 0-1.997 2zm80.057-2.86c0-6.87-5.183-14.53-12.617-14.53a2 2 0 1 0 0 3.99c4.856 0 8.623 5.67 8.623 10.54a8.882 8.882 0 0 1-8.9 8.85H37.94a2 2 0 1 0 0 3.99h57.184a12.88 12.88 0 0 0 12.89-12.84zm-3.994 32.23c0-7.12-5.63-15.4-12.89-15.4H21.968a2 2 0 1 0 0 3.99H91.13c4.708 0 8.9 6.38 8.9 11.41 0 5.11-3.868 9.26-8.622 9.26a2 2 0 1 0 0 3.99c6.953 0 12.612-5.94 12.612-13.25zM7.99 17.41a1.992 1.992 0 0 0 2 1.99h11.98a2 2 0 1 0 0-3.99H9.986a2 2 0 0 0-1.997 2zM1.997 35.37H13.98a2 2 0 1 0 0-3.99H2a2 2 0 1 0 0 3.99zm15.975-7.98h11.98a2 2 0 1 0 0-3.99h-11.98a2 2 0 1 0 0 3.99z"/></svg>