<svg xmlns="http://www.w3.org/2000/svg" width="108" height="48" viewBox="0 0 108 48"><defs><style>.cls-1 { fill: #333; fill-rule: evenodd; }</style></defs><path id="_27" data-name="27" class="cls-1" d="M52.09 29.99a2 2 0 0 0-2-2H2.018a2 2 0 1 0 0 4h48.07a2 2 0 0 0 2.002-2zm33.63-30a2 2 0 1 0 0 4c9.566 0 18.277 9.54 18.277 20 0 9.45-7.71 20-18.026 20h-47.9a2 2 0 1 0 0 4h47.9c11.737 0 22.033-11.21 22.033-24 0-12.56-10.622-24-22.282-24zm-5.057 25c0-7.31-5.876-13.5-12.83-13.5a2 2 0 1 0 0 4c4.783 0 8.824 4.35 8.824 9.5 0 4.96-4.12 11-8.923 11H18.04a2 2 0 1 0 0 4h49.694c7.28 0 12.93-8.06 12.93-15z"/></svg>