<svg xmlns="http://www.w3.org/2000/svg" width="108.125" height="79.85" viewBox="0 0 108.125 79.85"><defs><style>.cls-1 { fill: #333; fill-rule: evenodd; }</style></defs><path id="_28" data-name="28" class="cls-1" d="M61.044 33.53a1.975 1.975 0 1 0 3.947 0C64.99 15.04 50.42 0 32.505 0S.016 15.04.016 33.53a1.975 1.975 0 1 0 3.948 0c0-16.24 12.8-29.45 28.54-29.45s28.54 13.21 28.54 29.45zM95.56 18.6a2.036 2.036 0 0 0 0 4.07c4.587 0 8.612 4.61 8.612 9.87 0 4.9-3.923 10.82-8.792 10.82H46.566a2.036 2.036 0 0 0 0 4.07h48.812c7.292 0 12.74-7.86 12.74-14.89 0-7.56-5.752-13.94-12.56-13.94zM91.43 51.5H22.88a2.04 2.04 0 0 0 0 4.08h68.55c4.684 0 8.792 4.6 8.792 9.85 0 4.89-3.684 10.35-8.613 10.35a2.04 2.04 0 0 0 0 4.08c7.4 0 12.56-7.6 12.56-14.43 0-7.42-5.953-13.93-12.74-13.93z"/></svg>