<svg xmlns="http://www.w3.org/2000/svg" width="92" height="87.97" viewBox="0 0 92 87.97"><defs><style>.cls-1 { fill: #333; fill-rule: evenodd; }</style></defs><path id="_29" data-name="29" class="cls-1" d="M91.97 11.92a1.89 1.89 0 0 0-.08-.4C90.567 2.45 61.56.01 46.015.01S1.465 2.45.14 11.52a1.956 1.956 0 0 0-.08.4c0 .08-.045.15-.045.23 0 .05.026.09.027.14a2.07 2.07 0 0 0 .077.39 5.51 5.51 0 0 0 1.867 3.34L44.3 86.98a2 2 0 0 0 3.43 0l42.313-70.96a5.505 5.505 0 0 0 1.87-3.34 2.07 2.07 0 0 0 .076-.39c0-.05.025-.09.025-.14 0-.08-.042-.15-.046-.23zM46.014 4.04c26.04 0 40.7 4.92 41.885 7.75l-1.15 1.93c-4.066 2.83-18.1 6.55-40.735 6.55S9.347 16.55 5.28 13.72l-1.15-1.93c1.184-2.83 15.845-7.75 41.885-7.75zm0 77.99L8.845 19.69c10.135 3.49 26.7 4.61 37.17 4.61s27.036-1.12 37.17-4.61z"/></svg>