<svg xmlns="http://www.w3.org/2000/svg" width="115.937" height="95.844" viewBox="0 0 115.937 95.844"><defs><style>.cls-1 { fill: #333; fill-rule: evenodd; }</style></defs><path id="_3" data-name="3" class="cls-1" d="M71.575 12.25a2.027 2.027 0 0 0 2.016-2.04V2.055a2.016 2.016 0 1 0-4.03 0v8.157a2.026 2.026 0 0 0 2.015 2.04zm42.34 30.588h-8.06a2.04 2.04 0 0 0 0 4.08h8.066a2.04 2.04 0 0 0-.004-4.08zm-43.348 53.02c12.022 0 22.18-10.545 22.18-23.027a23.2 23.2 0 0 0-4.87-14.047 23.556 23.556 0 1 0-37.7-25.27A22.128 22.128 0 0 0 28.89 50.886a21.48 21.48 0 0 0-6.714-1.08c-12.023 0-22.18 10.543-22.18 23.024S10.154 95.86 22.177 95.86h48.39zM72.36 21.42a19.656 19.656 0 0 1 12.8 34.362 21.627 21.627 0 0 0-13.407-5.942 22.337 22.337 0 0 0-17.397-15.964 19.508 19.508 0 0 1 18-12.455zM4.03 72.83c0-10.27 8.31-18.946 18.147-18.946a17.79 17.79 0 0 1 7.454 1.663 2 2 0 0 0 1.832-.085 2.038 2.038 0 0 0 1.006-1.55 18.057 18.057 0 0 1 35.72-1.625 2.02 2.02 0 0 0 1.977 1.638 1.927 1.927 0 0 0 .4-.04c9.837 0 18.146 8.676 18.146 18.946s-8.308 18.95-18.145 18.95h-48.39C12.34 91.78 4.03 83.1 4.03 72.83zM46.92 21.5a2 2 0 0 0 2.852 0 2.053 2.053 0 0 0 0-2.883l-5.7-5.768a2 2 0 0 0-2.85 0 2.055 2.055 0 0 0 0 2.883zm49.9.6a2 2 0 0 0 1.426-.6l5.7-5.767a2.055 2.055 0 0 0 0-2.884 2 2 0 0 0-2.85 0l-5.7 5.767a2.053 2.053 0 0 0 0 2.883 2 2 0 0 0 1.424.6zm.9 42.618l5.7 5.77a2 2 0 0 0 2.852 0 2.055 2.055 0 0 0 0-2.884l-5.7-5.77a2 2 0 0 0-2.852 0 2.057 2.057 0 0 0-.005 2.88z"/></svg>