<svg xmlns="http://www.w3.org/2000/svg" width="92" height="87.97" viewBox="0 0 92 87.97"><defs><style>.cls-1 { fill: #333; fill-rule: evenodd; }</style></defs><path id="_30" data-name="30" class="cls-1" d="M46.015.01c-15.91 0-46 2.54-46 12.14s30.09 12.15 46 12.15 46-2.54 46-12.15S61.925.01 46.015.01zm0 20.26c-27.175 0-42-5.36-42-8.12s14.825-8.11 42-8.11 42 5.36 42 8.11-14.824 8.12-42 8.12zm37.2 10.11a2.136 2.136 0 0 0-2.093 1.91c-.178 1.8-11.243 6.53-35.112 6.53s-34.933-4.73-35.11-6.53a2 2 0 1 0-4 0c0 8.35 25.583 10.56 39.11 10.56s39.112-2.21 39.112-10.56a1.93 1.93 0 0 0-1.902-1.91zM64.67 50.42a2.005 2.005 0 0 0-1.965 1.63c-1.077.96-6.9 2.67-16.695 2.67s-15.617-1.71-16.7-2.67a2 2 0 0 0-3.965.38c0 6.01 17.21 6.31 20.66 6.31s20.66-.3 20.66-6.31a2 2 0 0 0-1.99-2.01zm-7.133 16.19a1.98 1.98 0 0 0-2.743.69L46.01 82.03l-8.76-14.7a2 2 0 0 0-2.746-.69 2.03 2.03 0 0 0-.685 2.77l10.475 17.57a2 2 0 0 0 3.43 0l10.5-17.61a2.017 2.017 0 0 0-.683-2.76z"/></svg>