<svg xmlns="http://www.w3.org/2000/svg" width="95.907" height="76" viewBox="0 0 95.907 76"><defs><style>.cls-1 { fill: #333; fill-rule: evenodd; }</style></defs><path id="_4" data-name="4" class="cls-1" d="M22.197 76h48.45A22.17 22.17 0 0 0 92.85 53.918a21.78 21.78 0 0 0-4.707-13.427 23.044 23.044 0 0 0 7.77-17.236 23.477 23.477 0 0 0-45.682-7.4 22.052 22.052 0 0 0-21.314 17.04 21.872 21.872 0 0 0-6.723-1.06 22.084 22.084 0 1 0 0 44.166zM72.44 4a19.37 19.37 0 0 1 19.44 19.255 19.083 19.083 0 0 1-6.473 14.305 22.083 22.083 0 0 0-13.575-5.69 22.194 22.194 0 0 0-17.417-15.656A19.524 19.524 0 0 1 72.44 4zM22.197 35.838a18.11 18.11 0 0 1 7.464 1.63 2.052 2.052 0 0 0 1.834-.083 2 2 0 0 0 1.008-1.52 18.134 18.134 0 0 1 35.763-1.593 2.013 2.013 0 0 0 1.98 1.6 1.15 1.15 0 0 0 .4-.04 18.082 18.082 0 1 1 0 36.164H22.196a18.082 18.082 0 1 1 0-36.16z"/></svg>