<svg xmlns="http://www.w3.org/2000/svg" width="95.907" height="96.062" viewBox="0 0 95.907 96.062"><defs><style>.cls-1 { fill: #333; fill-rule: evenodd; }</style></defs><path id="_6" data-name="6" class="cls-1" d="M18.26 82.798L8.18 92.69a1.954 1.954 0 0 0 0 2.8 2.045 2.045 0 0 0 2.853 0l10.083-9.893a1.955 1.955 0 0 0 0-2.8 2.045 2.045 0 0 0-2.855 0zm16.15 0L24.33 92.69a1.956 1.956 0 0 0 0 2.8 2.047 2.047 0 0 0 2.854 0l10.082-9.893a1.953 1.953 0 0 0 0-2.8 2.045 2.045 0 0 0-2.855 0zm16.152 0L40.48 92.69a1.954 1.954 0 0 0 0 2.8 2.045 2.045 0 0 0 2.854 0l10.083-9.893a1.955 1.955 0 0 0 0-2.8 2.045 2.045 0 0 0-2.855 0zm16.15 0L56.63 92.69a1.954 1.954 0 0 0 0 2.8 2.047 2.047 0 0 0 2.855 0l10.082-9.893a1.955 1.955 0 0 0 0-2.8 2.045 2.045 0 0 0-2.855 0zm-44.516-7.515h48.45A22.068 22.068 0 0 0 92.855 53.41a21.45 21.45 0 0 0-4.71-13.3 22.722 22.722 0 0 0 7.77-17.073A23.285 23.285 0 0 0 72.44 0a23.562 23.562 0 0 0-22.207 15.71 22.01 22.01 0 0 0-21.318 16.88 21.924 21.924 0 1 0-6.72 42.693zM72.44 3.96a19.278 19.278 0 0 1 19.436 19.073 18.822 18.822 0 0 1-6.47 14.17 22.176 22.176 0 0 0-13.576-5.636 22.118 22.118 0 0 0-17.418-15.51A19.53 19.53 0 0 1 72.442 3.96zM22.197 35.498a18.265 18.265 0 0 1 7.464 1.615 2.055 2.055 0 0 0 1.83-.083 1.975 1.975 0 0 0 1.01-1.5 18.162 18.162 0 0 1 35.762-1.58 2.01 2.01 0 0 0 1.98 1.592 1.633 1.633 0 0 0 .405-.04 17.913 17.913 0 1 1 0 35.824h-48.45a17.914 17.914 0 1 1 0-35.828z"/></svg>