<svg xmlns="http://www.w3.org/2000/svg" width="92.344" height="71.625" viewBox="0 0 92.344 71.625"><defs><style>.cls-1 { fill: #333; fill-rule: evenodd; }</style></defs><path id="_7" data-name="7" class="cls-1" d="M2.016 42.108a2.027 2.027 0 0 0 2-2.055c0-10.577 8.242-19.513 18-19.513a17.453 17.453 0 0 1 7.4 1.675 1.952 1.952 0 0 0 1.816-.086 2.066 2.066 0 0 0 1-1.562 17.874 17.874 0 0 1 35.43-1.635 2.064 2.064 0 0 0 2.02 1.65 1.525 1.525 0 0 0 .34-.043c9.758 0 18 8.936 18 19.513a2 2 0 1 0 4 0c0-12.38-9.422-22.9-20.825-23.587a21.8 21.8 0 0 0-42.522 1.06 20.976 20.976 0 0 0-6.66-1.09c-11.926 0-22 10.818-22 23.62a2.027 2.027 0 0 0 2 2.052zm.343 10.717h88a2.1 2.1 0 0 0 0-4.2h-88a2.1 2.1 0 0 0 0 4.2zm0 9.132h88a2.176 2.176 0 0 0 0-4.337h-88a2.176 2.176 0 0 0 0 4.332zm0 9.675h88a2 2 0 1 0 0-3.994h-88a2 2 0 1 0 0 3.987z"/></svg>