<svg xmlns="http://www.w3.org/2000/svg" width="107.844" height="107.937" viewBox="0 0 107.844 107.937"><defs><style>.cls-1 { fill: #333; fill-rule: evenodd; }</style></defs><path id="_8" data-name="8" class="cls-1" d="M37.034 84.86l-19.41 19.652a2.03 2.03 0 0 0 0 2.847 1.97 1.97 0 0 0 2.812 0l86.832-87.9a2.03 2.03 0 0 0 0-2.848 1.97 1.97 0 0 0-2.813 0L81.938 39.406a31.35 31.35 0 0 0-21.375-8.4 32.264 32.264 0 0 0-23.53 53.855zm23.53-49.832a27.433 27.433 0 0 1 18.56 7.223l-39.28 39.767a28.237 28.237 0 0 1 20.72-46.99zm-.89-14.888a2 2 0 0 0 1.99-2.013V2.017a1.99 1.99 0 1 0-3.98 0v16.11a2 2 0 0 0 1.985 2.013zM1.99 66.455h15.913a2.014 2.014 0 0 0 0-4.028H1.99a2.014 2.014 0 0 0 0 4.028zm26.888-33.137a1.97 1.97 0 0 0 2.812 0 2.03 2.03 0 0 0 0-2.848L20.436 19.08a1.973 1.973 0 0 0-2.813 0 2.03 2.03 0 0 0 0 2.848z"/></svg>