<svg xmlns="http://www.w3.org/2000/svg" width="124" height="124" viewBox="0 0 124 124">
  <defs>
    <style>
      .cls-1 {
        fill: #333;
        fill-rule: evenodd;
      }
    </style>
  </defs>
  <path id="_1" data-name="1" class="cls-1" d="M106.834,306.5a32,32,0,1,0-32-32A32.037,32.037,0,0,0,106.834,306.5Zm0-60a28,28,0,1,1-28,28A28.031,28.031,0,0,1,106.834,246.5Zm-1.334-14a2,2,0,0,0,2-2v-16a2,2,0,0,0-4,0v16A2,2,0,0,0,105.5,232.5Zm2,102v-16a2,2,0,0,0-4,0v16A2,2,0,0,0,107.5,334.5Zm-42-58a2,2,0,0,0-2-2h-16a2,2,0,0,0,0,4h16A2,2,0,0,0,65.5,276.5Zm102-2h-16a2,2,0,0,0,0,4h16A2,2,0,0,0,167.5,274.5ZM66.488,318.34L77.8,307.027a2,2,0,0,0-2.828-2.828L63.66,315.511A2,2,0,0,0,66.488,318.34Zm72.125-72.954a1.99,1.99,0,0,0,1.414-.586l11.313-11.312a2,2,0,0,0-2.829-2.828L137.2,241.972A2,2,0,0,0,138.613,245.386Zm1.414,58.813a2,2,0,0,0-2.828,2.828l11.312,11.313a2,2,0,1,0,2.829-2.829ZM74.973,244.8a2,2,0,1,0,2.828-2.828L66.488,230.66a2,2,0,0,0-2.828,2.828Z" transform="translate(-45.5 -212.5)"/>
</svg>
