<svg xmlns="http://www.w3.org/2000/svg" width="103.813" height="79.875" viewBox="0 0 103.813 79.875">
  <defs>
    <style>
      .cls-1 {
        fill: #333;
        fill-rule: evenodd;
      }
    </style>
  </defs>
  <path id="_10" data-name="10" class="cls-1" d="M608.146,476.916a22.168,22.168,0,0,0-30.84-13.854,25.926,25.926,0,0,0-7.267-14,26.5,26.5,0,0,0-12.9-7,2.01,2.01,0,0,0-1.876.536,1.982,1.982,0,0,0-.543,1.851,21.881,21.881,0,0,1-6,20.564,22.56,22.56,0,0,1-20.831,5.925,2.023,2.023,0,0,0-1.876.536,1.983,1.983,0,0,0-.543,1.852,25.987,25.987,0,0,0,7.09,12.739,26.468,26.468,0,0,0,5.624,4.137,22.075,22.075,0,0,0-2.038,9.2c0,12.2,10.193,22.515,22.258,22.515h48.562c12.066,0,22.258-10.311,22.258-22.515A22.732,22.732,0,0,0,608.146,476.916Zm-72.733,6.323a22.008,22.008,0,0,1-5.126-7.88,26.479,26.479,0,0,0,21.286-7.523,25.806,25.806,0,0,0,7.622-21.012,22.351,22.351,0,0,1,7.982,5.06,21.982,21.982,0,0,1,6.388,13.374,21.889,21.889,0,0,0-8.431,12.684,22.007,22.007,0,0,0-6.738-1.06,22.36,22.36,0,0,0-18.257,9.841A22.473,22.473,0,0,1,535.413,483.239Zm71.545,34.68H558.4c-9.872,0-18.211-8.482-18.211-18.521s8.339-18.521,18.211-18.521a18.2,18.2,0,0,1,7.481,1.629,2.056,2.056,0,0,0,1.838-.084,2,2,0,0,0,1.01-1.516,18.186,18.186,0,0,1,35.847-1.591,2.017,2.017,0,0,0,1.983,1.6,1.191,1.191,0,0,0,.4-0.041c9.872,0,18.211,8.482,18.211,18.521S616.83,517.919,606.958,517.919Z" transform="translate(-525.406 -442.031)"/>
</svg>
