<svg xmlns="http://www.w3.org/2000/svg" width="103.813" height="99.969" viewBox="0 0 103.813 99.969">
  <defs>
    <style>
      .cls-1 {
        fill: #333;
        fill-rule: evenodd;
      }
    </style>
  </defs>
  <path id="_11" data-name="11" class="cls-1" d="M766.146,466.81a22.252,22.252,0,0,0-30.84-13.731,25.627,25.627,0,0,0-7.267-13.88,26.567,26.567,0,0,0-12.9-6.937,2.035,2.035,0,0,0-1.876.532,1.951,1.951,0,0,0-.543,1.834,21.564,21.564,0,0,1-6,20.383,22.684,22.684,0,0,1-20.831,5.874,2.031,2.031,0,0,0-1.875.531,1.954,1.954,0,0,0-.544,1.835,25.7,25.7,0,0,0,7.09,12.627,26.437,26.437,0,0,0,5.679,4.133,22.139,22.139,0,0,0-2.092,9.328c0,12.229,10.192,22.559,22.257,22.559h48.563c12.065,0,22.257-10.33,22.257-22.559A22.761,22.761,0,0,0,766.146,466.81Zm-72.733,6.269a21.8,21.8,0,0,1-5.126-7.812,26.651,26.651,0,0,0,21.286-7.457,25.447,25.447,0,0,0,7.622-20.827A22.377,22.377,0,0,1,725.177,442a21.7,21.7,0,0,1,6.388,13.257,21.692,21.692,0,0,0-8.431,12.572,21.9,21.9,0,0,0-24.939,8.737A22.466,22.466,0,0,1,693.413,473.079Zm71.546,34.859H716.4c-9.872,0-18.211-8.517-18.211-18.6s8.339-18.6,18.211-18.6a18.342,18.342,0,0,1,7.481,1.615,2.076,2.076,0,0,0,1.838-.084,1.974,1.974,0,0,0,1.01-1.5,18.213,18.213,0,0,1,35.847-1.578,1.98,1.98,0,0,0,2.04,1.59,1.583,1.583,0,0,0,.347-0.041c9.871,0,18.21,8.519,18.21,18.6S774.83,507.938,764.959,507.938Zm-66.647,23.669,10.105-9.885a1.95,1.95,0,0,0,0-2.8,2.055,2.055,0,0,0-2.861,0l-10.106,9.886a1.949,1.949,0,0,0,0,2.8A2.053,2.053,0,0,0,698.312,531.607Zm16.187,0,10.105-9.885a1.949,1.949,0,0,0,0-2.8,2.055,2.055,0,0,0-2.861,0l-10.105,9.886a1.949,1.949,0,0,0,0,2.8A2.052,2.052,0,0,0,714.5,531.607Zm16.187,0,10.106-9.885a1.95,1.95,0,0,0,0-2.8,2.055,2.055,0,0,0-2.861,0l-10.106,9.886a1.949,1.949,0,0,0,0,2.8A2.052,2.052,0,0,0,730.686,531.607Zm16.188,0,10.105-9.885a1.949,1.949,0,0,0,0-2.8,2.055,2.055,0,0,0-2.861,0l-10.105,9.886a1.947,1.947,0,0,0,0,2.8A2.052,2.052,0,0,0,746.874,531.607Z" transform="translate(-683.406 -432.219)"/>
</svg>
