<svg xmlns="http://www.w3.org/2000/svg" width="91.75" height="91.75" viewBox="0 0 91.75 91.75">
  <defs>
    <style>
      .cls-1 {
        fill: #333;
        fill-rule: evenodd;
      }
    </style>
  </defs>
  <path id="_12" data-name="12" class="cls-1" d="M933.975,436.542L907.007,463.8a31.993,31.993,0,0,0-7.842-13.261,31.573,31.573,0,0,0-15.487-8.6,1.948,1.948,0,0,0-1.842.539,2.024,2.024,0,0,0-.534,1.863,28.216,28.216,0,0,1-7.443,26.1,27.515,27.515,0,0,1-25.816,7.522,1.949,1.949,0,0,0-1.843.539,2.029,2.029,0,0,0-.534,1.863,32.141,32.141,0,0,0,8.511,15.658,31.514,31.514,0,0,0,13.118,7.928l-20.114,20.334a2.024,2.024,0,0,0,0,2.842,1.971,1.971,0,0,0,2.811,0L872.4,504.475c0.019-.015.034-0.036,0.052-0.052l64.336-65.039a2.024,2.024,0,0,0,0-2.842A1.971,1.971,0,0,0,933.975,436.542Zm-76.987,56.639a28.017,28.017,0,0,1-6.613-10.735,31.379,31.379,0,0,0,26.3-9.163,32.179,32.179,0,0,0,9.066-26.583,27.6,27.6,0,0,1,10.617,6.685,28.048,28.048,0,0,1,7.414,13.694l-33.233,33.6A27.587,27.587,0,0,1,856.988,493.181Z" transform="translate(-845.625 -435.969)"/>
</svg>
