<svg xmlns="http://www.w3.org/2000/svg" width="107.844" height="107.938" viewBox="0 0 107.844 107.938">
  <defs>
    <style>
      .cls-1 {
        fill: #333;
        fill-rule: evenodd;
      }
    </style>
  </defs>
  <path id="_13" data-name="13" class="cls-1" d="M111.12,638.422v16.11a1.989,1.989,0,1,0,3.978,0v-16.11A1.989,1.989,0,1,0,111.12,638.422ZM73.327,700.846a2,2,0,0,0-1.989-2.014H55.425a2.014,2.014,0,0,0,0,4.028H71.338A2,2,0,0,0,73.327,700.846Zm84.563-47.833-22.516,22.794a31.359,31.359,0,0,0-21.377-8.4,32.262,32.262,0,0,0-23.528,53.86L71.058,740.917a2.03,2.03,0,0,0,0,2.847,1.971,1.971,0,0,0,2.813,0l19.338-19.577a31.572,31.572,0,0,0,20.007,7.2,32.06,32.06,0,0,0,31.826-32.219,32.408,32.408,0,0,0-7.113-20.251L160.7,655.861a2.031,2.031,0,0,0,0-2.848A1.971,1.971,0,0,0,157.89,653.013ZM86.149,699.625A28.053,28.053,0,0,1,114,671.433a27.433,27.433,0,0,1,18.564,7.221L93.281,718.42A28.113,28.113,0,0,1,86.149,699.625Zm-15.091-44.14a2.031,2.031,0,0,0,0,2.848l11.253,11.39a1.971,1.971,0,0,0,2.813,0,2.031,2.031,0,0,0,0-2.848l-11.253-11.39A1.972,1.972,0,0,0,71.058,655.485Z" transform="translate(-53.438 -636.406)"/>
</svg>
