<svg xmlns="http://www.w3.org/2000/svg" width="104" height="88.063" viewBox="0 0 104 88.063">
  <defs>
    <style>
      .cls-1 {
        fill: #333;
        fill-rule: evenodd;
      }
    </style>
  </defs>
  <path id="_15" data-name="15" class="cls-1" d="M391.547,718.046h48c11.925,0,22-10.2,22-22.268a21.5,21.5,0,0,0-.687-5.135,16.695,16.695,0,0,0-3.04-32.873,16.959,16.959,0,0,0-32.62.714,21.657,21.657,0,0,0-26.993,16.076,21.69,21.69,0,0,0-6.66-1.05c-11.926,0-22,10.2-22,22.268S379.621,718.046,391.547,718.046Zm50-68.288a12.991,12.991,0,0,1,12.738,10.316,2.246,2.246,0,0,0,2.262,1.56,12.786,12.786,0,0,1,3.044,25.253,22.362,22.362,0,0,0-18.872-13.344,21.838,21.838,0,0,0-11.738-13.689A12.865,12.865,0,0,1,441.547,649.758Zm-50,27.711a18,18,0,0,1,7.4,1.614,2.028,2.028,0,0,0,1.817-.083,1.987,1.987,0,0,0,1-1.5,17.967,17.967,0,0,1,35.43-1.575,1.994,1.994,0,0,0,2.019,1.589,1.6,1.6,0,0,0,.34-0.041c9.758,0,18,8.386,18,18.309s-8.242,18.309-18,18.309h-48c-9.758,0-18-8.385-18-18.309S381.789,677.469,391.547,677.469Zm-2,48.5h48a1.98,1.98,0,1,0,0-3.959h-48A1.98,1.98,0,1,0,389.547,725.964Zm0,7.917h48a1.98,1.98,0,1,0,0-3.959h-48A1.98,1.98,0,1,0,389.547,733.881Z" transform="translate(-369.531 -645.812)"/>
</svg>
