<svg xmlns="http://www.w3.org/2000/svg" width="104" height="91.843" viewBox="0 0 104 91.843">
  <defs>
    <style>
      .cls-1 {
        fill: #333;
        fill-rule: evenodd;
      }
    </style>
  </defs>
  <path id="_16" data-name="16" class="cls-1" d="M535.976,677.023a2.059,2.059,0,0,0,1.118,2.651,1.98,1.98,0,0,0,.742.146,2,2,0,0,0,1.859-1.287,27.876,27.876,0,0,1,26.016-17.99,2.041,2.041,0,0,0,0-4.081A31.868,31.868,0,0,0,535.976,677.023Zm-6.882-9.594a1.98,1.98,0,0,0,.742.146,2,2,0,0,0,1.859-1.286A27.875,27.875,0,0,1,557.711,648.3a2.041,2.041,0,0,0,0-4.081,31.868,31.868,0,0,0-29.735,20.561A2.059,2.059,0,0,0,529.094,667.429Zm18.453,68.624h48c11.719,0,22-11.443,22-24.489a25.214,25.214,0,0,0-.935-6.768,17.29,17.29,0,0,0-2.792-33.951,16.825,16.825,0,0,0-32.62.735,21.314,21.314,0,0,0-5.653-.833A22.01,22.01,0,0,0,554.2,688.156a21.073,21.073,0,0,0-6.656-1.082c-11.719,0-22,11.443-22,24.49S535.828,736.053,547.547,736.053Zm50-73.469a13.093,13.093,0,0,1,12.738,10.637,2.422,2.422,0,0,0,2.262,1.608,13.223,13.223,0,0,1,2.648,26.129c-3.516-7.683-10.586-13.333-18.473-13.846a22.343,22.343,0,0,0-11.741-14.118A12.961,12.961,0,0,1,597.547,662.584Zm-50,28.571a17.516,17.516,0,0,1,7.394,1.664,1.952,1.952,0,0,0,1.813-.085,2.042,2.042,0,0,0,1-1.549,17.89,17.89,0,0,1,35.433-1.626,2.032,2.032,0,0,0,2.02,1.638,1.525,1.525,0,0,0,.34-0.042c10.3,0,18,10.774,18,20.409s-7.7,20.408-18,20.408h-48c-10.3,0-18-10.774-18-20.408S537.246,691.155,547.547,691.155Z" transform="translate(-525.531 -644.219)"/>
</svg>
