<svg xmlns="http://www.w3.org/2000/svg" width="67.593" height="95.844" viewBox="0 0 67.593 95.844">
  <defs>
    <style>
      .cls-1 {
        fill: #333;
        fill-rule: evenodd;
      }
    </style>
  </defs>
  <path id="_17" data-name="17" class="cls-1" d="M703.728,697.621a2.021,2.021,0,0,0,2.051-1.992c0-15.878,13.3-28.8,29.652-28.8s29.656,12.917,29.656,28.8a2.052,2.052,0,0,0,4.1,0c0-18.074-15.143-32.778-33.758-32.778s-33.754,14.7-33.754,32.778A2.021,2.021,0,0,0,703.728,697.621Zm29.7,2.06a2.02,2.02,0,0,0-2.051,1.991v23.114a13.11,13.11,0,0,0,13.32,12.856c7.507,0,14.878-6.712,14.878-13.551a2.052,2.052,0,0,0-4.1,0c0,4.651-5.541,9.568-10.776,9.568a9.06,9.06,0,0,1-9.218-8.873V701.672A2.02,2.02,0,0,0,733.424,699.681Zm-24.215-44.532,10.239-9.947a1.95,1.95,0,0,0,0-2.816,2.1,2.1,0,0,0-2.9,0l-10.239,9.947a1.95,1.95,0,0,0,0,2.816A2.093,2.093,0,0,0,709.209,655.149Zm16.408,0,10.239-9.947a1.95,1.95,0,0,0,0-2.816,2.1,2.1,0,0,0-2.9,0l-10.239,9.947a1.95,1.95,0,0,0,0,2.816A2.093,2.093,0,0,0,725.617,655.149Zm16.408,0,10.239-9.947a1.95,1.95,0,0,0,0-2.816,2.1,2.1,0,0,0-2.9,0l-10.239,9.947a1.95,1.95,0,0,0,0,2.816A2.093,2.093,0,0,0,742.025,655.149Zm16.408,0,10.239-9.947a1.95,1.95,0,0,0,0-2.816,2.093,2.093,0,0,0-2.9,0l-10.239,9.947a1.949,1.949,0,0,0,0,2.816A2.092,2.092,0,0,0,758.433,655.149Z" transform="translate(-701.688 -641.812)"/>
</svg>
