<svg xmlns="http://www.w3.org/2000/svg" width="92" height="91.906" viewBox="0 0 92 91.906">
  <defs>
    <style>
      .cls-1 {
        fill: #333;
        fill-rule: evenodd;
      }
    </style>
  </defs>
  <path id="_18" data-name="18" class="cls-1" d="M867.547,709.6h48c12.59,0,22-13.066,22-24.748,0-11.316-8.828-23.929-20.825-24.709a21.883,21.883,0,0,0-42.515,1.033,21.3,21.3,0,0,0-6.66-1.071c-12.59,0-22,13.066-22,24.747S854.957,709.6,867.547,709.6Zm0-45.455a17.692,17.692,0,0,1,7.4,1.648,1.982,1.982,0,0,0,1.817-.085,2.031,2.031,0,0,0,1-1.535,17.913,17.913,0,0,1,35.43-1.608,2.077,2.077,0,0,0,2.019,1.622,1.517,1.517,0,0,0,.34-0.042c10.137,0,18,11.131,18,20.707s-7.863,20.707-18,20.707h-48c-10.137,0-18-11.13-18-20.707S857.41,664.14,867.547,664.14Zm4,53.536v16.161a2,2,0,1,0,4,0V717.676A2,2,0,1,0,871.547,717.676Zm24,0v16.161a2,2,0,1,0,4,0V717.676A2,2,0,1,0,895.547,717.676Zm-12,0v8.08a2,2,0,1,0,4,0v-8.08A2,2,0,1,0,883.547,717.676Zm24,0v8.08a2,2,0,1,0,4,0v-8.08A2,2,0,1,0,907.547,717.676Z" transform="translate(-845.531 -643.938)"/>
</svg>
