<svg xmlns="http://www.w3.org/2000/svg" width="95.875" height="92" viewBox="0 0 95.875 92">
  <defs>
    <style>
      .cls-1 {
        fill: #333;
        fill-rule: evenodd;
      }
    </style>
  </defs>
  <path id="_19" data-name="19" class="cls-1" d="M155.723,890.015c0-12.056-9.315-22.3-20.591-22.966A21.626,21.626,0,0,0,93.1,868.076a21.036,21.036,0,0,0-6.584-1.061c-11.79,0-21.75,10.534-21.75,23s9.96,23,21.75,23h47.455C145.763,913.015,155.723,902.482,155.723,890.015Zm-87,0c0-10.3,8.148-19,17.8-19a17.442,17.442,0,0,1,7.31,1.631,1.967,1.967,0,0,0,1.8-.084,2,2,0,0,0,.987-1.518,17.706,17.706,0,0,1,35.028-1.593,1.906,1.906,0,0,0,1.994,1.606,1.588,1.588,0,0,0,.34-0.042c9.647,0,17.8,8.7,17.8,19s-8.149,19-17.8,19H86.519C76.872,909.015,68.723,900.314,68.723,890.015ZM82.974,919.6a1.961,1.961,0,0,0-2.8,0L70.3,929.59a2.016,2.016,0,0,0,0,2.828,1.961,1.961,0,0,0,2.8,0l9.875-9.989A2.016,2.016,0,0,0,82.974,919.6Zm15.818,0a1.961,1.961,0,0,0-2.8,0l-9.875,9.989a2.015,2.015,0,0,0,0,2.828,1.96,1.96,0,0,0,2.8,0l9.875-9.989A2.016,2.016,0,0,0,98.792,919.6Zm15.819,0a1.961,1.961,0,0,0-2.8,0l-9.875,9.989a2.016,2.016,0,0,0,0,2.828,1.961,1.961,0,0,0,2.8,0l9.875-9.989A2.016,2.016,0,0,0,114.61,919.6Zm13.022,0-9.875,9.989a2.016,2.016,0,0,0,0,2.828,1.961,1.961,0,0,0,2.8,0l9.875-9.989a2.016,2.016,0,0,0,0-2.828A1.961,1.961,0,0,0,127.632,919.6Zm-15.818,16-3.955,4a2.016,2.016,0,0,0,0,2.828,1.961,1.961,0,0,0,2.8,0l3.955-4a2.016,2.016,0,0,0,0-2.828A1.961,1.961,0,0,0,111.814,935.6ZM96,935.6l-3.955,4a2.016,2.016,0,0,0,0,2.828,1.96,1.96,0,0,0,2.8,0l3.954-4a2.016,2.016,0,0,0,0-2.828A1.961,1.961,0,0,0,96,935.6Zm-15.818,0-3.955,4a2.015,2.015,0,0,0,0,2.828,1.96,1.96,0,0,0,2.8,0l3.955-4a2.016,2.016,0,0,0,0-2.828A1.961,1.961,0,0,0,80.177,935.6Zm-15.818,0-3.955,4a2.015,2.015,0,0,0,0,2.828,1.961,1.961,0,0,0,2.8,0l3.954-4a2.015,2.015,0,0,0,0-2.828A1.961,1.961,0,0,0,64.359,935.6Z" transform="translate(-59.844 -851)"/>
</svg>
