<svg xmlns="http://www.w3.org/2000/svg" width="92" height="96.062" viewBox="0 0 92 96.062">
  <defs>
    <style>
      .cls-1 {
        fill: #333;
        fill-rule: evenodd;
      }
    </style>
  </defs>
  <path id="_20" data-name="20" class="cls-1" d="M289.222,865.136a21.984,21.984,0,0,0-42.515,1.014,21.67,21.67,0,0,0-6.66-1.051c-11.719,0-22,11.194-22,23.957s10.281,23.954,22,23.954h48c11.719,0,22-11.194,22-23.954C310.047,876.723,300.445,865.852,289.222,865.136Zm-1.175,43.909h-48c-10.3,0-18-10.553-18-19.989s7.7-19.992,18-19.992a17.951,17.951,0,0,1,7.394,1.616,2.027,2.027,0,0,0,1.817-.083,1.982,1.982,0,0,0,1-1.5,17.964,17.964,0,0,1,35.432-1.58,1.994,1.994,0,0,0,1.96,1.592,1.446,1.446,0,0,0,.4-0.041c10.3,0,18,10.555,18,19.992S298.35,909.045,288.047,909.045Zm-38.084,35.679a2.011,2.011,0,0,0,2.828.008l12.666-12.474a1.967,1.967,0,0,0,.439-2.16,2,2,0,0,0-1.849-1.228H258.92l8.388-8.434a1.969,1.969,0,0,0-.019-2.8,2.012,2.012,0,0,0-2.828.02L252.715,929.46a1.969,1.969,0,0,0-.422,2.157,2,2,0,0,0,1.845,1.218H259.2l-9.224,9.086A1.97,1.97,0,0,0,249.963,944.724Z" transform="translate(-218.031 -849.25)"/>
</svg>
