<svg xmlns="http://www.w3.org/2000/svg" width="92" height="99.969" viewBox="0 0 92 99.969">
  <defs>
    <style>
      .cls-1 {
        fill: #333;
        fill-rule: evenodd;
      }
    </style>
  </defs>
  <path id="_21" data-name="21" class="cls-1" d="M446.221,862.886a21.906,21.906,0,0,0-42.514,1.031,21.392,21.392,0,0,0-6.66-1.067c-11.926,0-22,10.667-22,23.294s10.074,23.291,22,23.291h48c11.925,0,22-10.667,22-23.291C467.047,873.934,457.625,863.557,446.221,862.886Zm-1.174,42.528h-48c-9.588,0-18-9.006-18-19.27s8.412-19.272,18-19.272a17.743,17.743,0,0,1,7.394,1.639,2,2,0,0,0,2.815-1.61,17.926,17.926,0,0,1,35.432-1.6,2,2,0,0,0,1.96,1.615,0.924,0.924,0,0,0,.4-0.042c9.588,0,18,9.006,18,19.272S454.635,905.414,445.047,905.414Zm-42.057,40.74a1.993,1.993,0,0,0,2.828-.046l12.666-13.155a2.012,2.012,0,0,0-1.437-3.409H412.23l8.016-7.488a2.019,2.019,0,0,0,.1-2.842,2,2,0,0,0-2.827-.1l-11.746,10.971a2.012,2.012,0,0,0,1.361,3.483h5.188l-9.383,9.746A2.018,2.018,0,0,0,402.99,946.154Zm28.482-15.536,9.989-10.043a2.018,2.018,0,0,0,0-2.843,1.992,1.992,0,0,0-2.828,0l-9.989,10.042a2.019,2.019,0,0,0,0,2.844A1.992,1.992,0,0,0,431.472,930.618Zm-40,0,9.989-10.043a2.018,2.018,0,0,0,0-2.843,1.992,1.992,0,0,0-2.828,0l-9.989,10.042a2.019,2.019,0,0,0,0,2.844A1.992,1.992,0,0,0,391.472,930.618Z" transform="translate(-375.031 -846.75)"/>
</svg>
