<svg xmlns="http://www.w3.org/2000/svg" width="91.875" height="99.969" viewBox="0 0 91.875 99.969">
  <defs>
    <style>
      .cls-1 {
        fill: #333;
        fill-rule: evenodd;
      }
    </style>
  </defs>
  <path id="_22" data-name="22" class="cls-1" d="M603.091,862.886a21.588,21.588,0,0,0-42.012,1.031,20.911,20.911,0,0,0-6.582-1.067c-11.784,0-21.74,10.667-21.74,23.294s9.956,23.291,21.74,23.291h47.434c11.784,0,21.74-10.667,21.74-23.291C623.671,873.934,614.36,863.557,603.091,862.886Zm-1.16,42.528H554.5c-9.474,0-17.787-9.006-17.787-19.27s8.313-19.272,17.787-19.272a17.367,17.367,0,0,1,7.308,1.639,1.951,1.951,0,0,0,1.8-.084,2.013,2.013,0,0,0,.986-1.526,17.685,17.685,0,0,1,35.013-1.6,1.985,1.985,0,0,0,1.938,1.615,0.883,0.883,0,0,0,.394-0.042c9.474,0,17.787,9.006,17.787,19.272S611.405,905.414,601.931,905.414Zm-45.513,40.74a1.953,1.953,0,0,0,2.795-.046l12.516-13.155a2.037,2.037,0,0,0,.4-2.184,1.977,1.977,0,0,0-1.819-1.225h-4.76l7.921-7.488a2.035,2.035,0,0,0,.1-2.842,1.954,1.954,0,0,0-2.793-.1l-11.607,10.971a2.035,2.035,0,0,0-.494,2.207,1.977,1.977,0,0,0,1.839,1.276h5.127l-9.272,9.746A2.034,2.034,0,0,0,556.418,946.154Zm32.1-15.536,9.87-10.043a2.034,2.034,0,0,0,0-2.843,1.953,1.953,0,0,0-2.795,0l-9.87,10.042a2.036,2.036,0,0,0,0,2.844A1.952,1.952,0,0,0,588.517,930.618Zm-9.894,10.066,3.953-4.022a2.034,2.034,0,0,0,0-2.843,1.951,1.951,0,0,0-2.8,0l-3.952,4.021a2.036,2.036,0,0,0,0,2.844A1.951,1.951,0,0,0,578.623,940.684Zm-33.587-10.066,9.871-10.043a2.034,2.034,0,0,0,0-2.843,1.953,1.953,0,0,0-2.8,0l-9.87,10.042a2.036,2.036,0,0,0,0,2.844A1.951,1.951,0,0,0,545.036,930.618Zm-9.893,10.066,3.953-4.022a2.034,2.034,0,0,0,0-2.843,1.951,1.951,0,0,0-2.795,0l-3.953,4.021a2.036,2.036,0,0,0,0,2.844A1.952,1.952,0,0,0,535.143,940.684Z" transform="translate(-531.781 -846.75)"/>
</svg>
