<svg xmlns="http://www.w3.org/2000/svg" width="92" height="91.844" viewBox="0 0 92 91.844">
  <defs>
    <style>
      .cls-1 {
        fill: #333;
        fill-rule: evenodd;
      }
    </style>
  </defs>
  <path id="_23" data-name="23" class="cls-1" d="M711.047,916.411h48c11.719,0,22-11.444,22-24.49,0-12.608-9.6-23.721-20.825-24.452a21.832,21.832,0,0,0-42.515,1.044,21.115,21.115,0,0,0-6.66-1.082c-11.719,0-22,11.444-22,24.49S699.328,916.411,711.047,916.411Zm0-44.9a17.517,17.517,0,0,1,7.395,1.664,1.959,1.959,0,0,0,1.816-.086,2.04,2.04,0,0,0,1-1.549,17.889,17.889,0,0,1,35.431-1.628,2.066,2.066,0,0,0,2.019,1.641,1.579,1.579,0,0,0,.34-0.042c10.3,0,18,10.773,18,20.408s-7.7,20.408-18,20.408h-48c-10.3,0-18-10.774-18-20.408S700.744,871.513,711.047,871.513Zm10,61.224a2,2,0,1,0,2-2.041A2.021,2.021,0,0,0,721.047,932.737Zm20,0a2,2,0,1,0,2-2.041A2.021,2.021,0,0,0,741.047,932.737Zm-4-8.163a2,2,0,1,0-2,2.04A2.02,2.02,0,0,0,737.047,924.574Zm16,0a2,2,0,1,0,2-2.041A2.02,2.02,0,0,0,753.047,924.574Zm-20,16.327a2,2,0,1,0-2,2.04A2.021,2.021,0,0,0,733.047,940.9Zm-20-16.327a2,2,0,1,0,2-2.041A2.02,2.02,0,0,0,713.047,924.574Z" transform="translate(-689.031 -851.094)"/>
</svg>
