<svg xmlns="http://www.w3.org/2000/svg" width="92" height="99.937" viewBox="0 0 92 99.937">
  <defs>
    <style>
      .cls-1 {
        fill: #333;
        fill-rule: evenodd;
      }
    </style>
  </defs>
  <path id="_24" data-name="24" class="cls-1" d="M875.715,918.13a2,2,0,1,0-4,0V934.3a2,2,0,1,0,4,0V918.13Zm24,0a2,2,0,1,0-4,0V934.3a2,2,0,1,0,4,0V918.13Zm-12,0a2,2,0,1,0-4,0v8.087a2,2,0,1,0,4,0V918.13Zm24,0a2,2,0,1,0-4,0v8.087a2,2,0,1,0,4,0V918.13Zm25.332-31.548c0-12.3-9.422-22.751-20.824-23.427a21.88,21.88,0,0,0-42.516,1.037,21.272,21.272,0,0,0-6.66-1.072c-11.926,0-22,10.744-22,23.462s10.074,23.462,22,23.462h48C926.973,910.044,937.047,899.3,937.047,886.582Zm-88,0c0-10.345,8.41-19.419,18-19.419a17.692,17.692,0,0,1,7.4,1.648,1.967,1.967,0,0,0,1.813-.084,2.026,2.026,0,0,0,1-1.534,17.911,17.911,0,0,1,35.43-1.613,2.026,2.026,0,0,0,2.019,1.625,1.579,1.579,0,0,0,.34-0.042c9.59,0,18,9.074,18,19.419s-8.41,19.419-18,19.419h-48C857.457,906,849.047,896.927,849.047,886.582Zm36.387,48.148a2.022,2.022,0,1,0,2,2.022A2.011,2.011,0,0,0,885.434,934.73Zm24,0a2.022,2.022,0,1,0,2,2.022A2.011,2.011,0,0,0,909.434,934.73Zm-12,8.087a2.022,2.022,0,1,0,2,2.021A2.01,2.01,0,0,0,897.434,942.817Zm-24,0a2.022,2.022,0,1,0,2,2.021A2.01,2.01,0,0,0,873.434,942.817Z" transform="translate(-845.031 -846.938)"/>
</svg>
