<svg xmlns="http://www.w3.org/2000/svg" width="108" height="60.03" viewBox="0 0 108 60.03">
  <defs>
    <style>
      .cls-1 {
        fill: #333;
        fill-rule: evenodd;
      }
    </style>
  </defs>
  <path id="_26" data-name="26" class="cls-1" d="M237.676,1092.72a1.992,1.992,0,0,0,2,1.99H287.6a2,2,0,1,0,0-3.99H239.673A2,2,0,0,0,237.676,1092.72Zm80.057-2.86c0-6.87-5.183-14.53-12.617-14.53a2,2,0,1,0,0,3.99c4.856,0,8.623,5.67,8.623,10.54a8.882,8.882,0,0,1-8.9,8.85H247.66a2,2,0,1,0,0,3.99h57.183A12.881,12.881,0,0,0,317.733,1089.86Zm-3.994,32.23c0-7.12-5.631-15.4-12.889-15.4H231.686a2,2,0,1,0,0,3.99H300.85c4.707,0,8.9,6.38,8.9,11.41,0,5.11-3.869,9.26-8.623,9.26a2,2,0,1,0,0,3.99C308.08,1135.34,313.739,1129.4,313.739,1122.09Zm-96.031-29.37a1.992,1.992,0,0,0,2,1.99h11.981a2,2,0,1,0,0-3.99H219.705A2,2,0,0,0,217.708,1092.72Zm-5.991,17.96H223.7a2,2,0,1,0,0-3.99H211.717A2,2,0,1,0,211.717,1110.68Zm15.975-7.98h11.981a2,2,0,1,0,0-3.99H227.692A2,2,0,1,0,227.692,1102.7Z" transform="translate(-209.719 -1075.31)"/>
</svg>
