<svg xmlns="http://www.w3.org/2000/svg" width="108" height="48" viewBox="0 0 108 48">
  <defs>
    <style>
      .cls-1 {
        fill: #333;
        fill-rule: evenodd;
      }
    </style>
  </defs>
  <path id="_27" data-name="27" class="cls-1" d="M419.809,1111.37a2,2,0,0,0-2-2H369.737a2,2,0,1,0,0,4h48.069A2,2,0,0,0,419.809,1111.37Zm33.631-30a2,2,0,1,0,0,4c9.565,0,18.276,9.54,18.276,20,0,9.45-7.71,20-18.026,20h-47.9a2,2,0,1,0,0,4h47.9c11.736,0,22.032-11.21,22.032-24C475.722,1092.81,465.1,1081.37,453.44,1081.37Zm-5.058,25c0-7.31-5.876-13.5-12.831-13.5a2,2,0,1,0,0,4c4.784,0,8.825,4.35,8.825,9.5,0,4.96-4.119,11-8.923,11H385.76a2,2,0,1,0,0,4h49.693C442.733,1121.37,448.382,1113.31,448.382,1106.37Z" transform="translate(-367.719 -1081.38)"/>
</svg>
