<svg xmlns="http://www.w3.org/2000/svg" width="108.125" height="79.85" viewBox="0 0 108.125 79.85">
  <defs>
    <style>
      .cls-1 {
        fill: #333;
        fill-rule: evenodd;
      }
    </style>
  </defs>
  <path id="_28" data-name="28" class="cls-1" d="M584.2,1098.62a1.975,1.975,0,1,0,3.947,0c0-18.49-14.573-33.53-32.487-33.53s-32.488,15.04-32.488,33.53a1.975,1.975,0,1,0,3.948,0c0-16.24,12.8-29.45,28.54-29.45S584.2,1082.38,584.2,1098.62Zm34.515-14.93a2.036,2.036,0,0,0,0,4.07c4.588,0,8.613,4.61,8.613,9.87,0,4.9-3.923,10.82-8.792,10.82H569.722a2.036,2.036,0,0,0,0,4.07h48.812c7.292,0,12.74-7.86,12.74-14.89C631.274,1090.07,625.522,1083.69,618.713,1083.69Zm-4.127,32.9H546.035a2.041,2.041,0,0,0,0,4.08h68.551c4.684,0,8.792,4.6,8.792,9.85,0,4.89-3.684,10.35-8.613,10.35a2.041,2.041,0,0,0,0,4.08c7.4,0,12.561-7.6,12.561-14.43C627.326,1123.1,621.373,1116.59,614.586,1116.59Z" transform="translate(-523.156 -1065.09)"/>
</svg>
