<svg xmlns="http://www.w3.org/2000/svg" width="92" height="87.97" viewBox="0 0 92 87.97">
  <defs>
    <style>
      .cls-1 {
        fill: #333;
        fill-rule: evenodd;
      }
    </style>
  </defs>
  <path id="_29" data-name="29" class="cls-1" d="M780.688,1072.83a1.89,1.89,0,0,0-.079-0.4c-1.323-9.07-30.329-11.51-45.875-11.51s-44.551,2.44-45.874,11.51a1.956,1.956,0,0,0-.08.4c0,0.08-.046.15-0.046,0.23,0,0.05.026,0.09,0.027,0.14a2.07,2.07,0,0,0,.077.39,5.509,5.509,0,0,0,1.868,3.34l42.314,70.96a2,2,0,0,0,3.429,0l42.313-70.96a5.505,5.505,0,0,0,1.869-3.34,2.07,2.07,0,0,0,.077-0.39c0-.05.026-0.09,0.026-0.14C780.734,1072.98,780.692,1072.91,780.688,1072.83Zm-45.954-7.88c26.041,0,40.7,4.92,41.885,7.75l-1.15,1.93c-4.066,2.83-18.1,6.55-40.735,6.55s-36.668-3.72-40.735-6.55l-1.149-1.93C694.033,1069.87,708.694,1064.95,734.734,1064.95Zm0,77.99-37.171-62.34c10.136,3.49,26.7,4.61,37.171,4.61s27.036-1.12,37.171-4.61Z" transform="translate(-688.719 -1060.91)"/>
</svg>
