<svg xmlns="http://www.w3.org/2000/svg" width="115.937" height="95.844" viewBox="0 0 115.937 95.844">
  <defs>
    <style>
      .cls-1 {
        fill: #333;
        fill-rule: evenodd;
      }
    </style>
  </defs>
  <path id="_3" data-name="3" class="cls-1" d="M434.919,238.75a2.027,2.027,0,0,0,2.016-2.039v-8.157a2.016,2.016,0,1,0-4.032,0v8.157A2.026,2.026,0,0,0,434.919,238.75Zm42.341,30.588H469.2a2.04,2.04,0,0,0,0,4.079h8.065A2.04,2.04,0,0,0,477.26,269.338Zm-43.349,53.02c12.022,0,22.179-10.545,22.179-23.027a23.2,23.2,0,0,0-4.869-14.048,23.556,23.556,0,1,0-37.7-25.271,22.128,22.128,0,0,0-21.287,17.375,21.48,21.48,0,0,0-6.714-1.081c-12.023,0-22.179,10.544-22.179,23.025s10.156,23.027,22.179,23.027h48.39Zm1.792-74.437a19.656,19.656,0,0,1,12.8,34.361,21.627,21.627,0,0,0-13.406-5.942A22.337,22.337,0,0,0,417.7,260.376,19.508,19.508,0,0,1,435.7,247.921Zm-68.329,51.41c0-10.27,8.309-18.947,18.147-18.947a17.789,17.789,0,0,1,7.454,1.663,2,2,0,0,0,1.831-.085,2.038,2.038,0,0,0,1.006-1.55,18.057,18.057,0,0,1,35.72-1.625,2.021,2.021,0,0,0,1.977,1.638,1.927,1.927,0,0,0,.4-0.041c9.837,0,18.146,8.677,18.146,18.947s-8.309,18.948-18.146,18.948h-48.39C375.683,318.279,367.374,309.6,367.374,299.331ZM410.265,248a2,2,0,0,0,2.851,0,2.053,2.053,0,0,0,0-2.883l-5.7-5.768a2,2,0,0,0-2.851,0,2.055,2.055,0,0,0,0,2.884Zm49.9,0.6a2,2,0,0,0,1.425-.6l5.7-5.767a2.055,2.055,0,0,0,0-2.884,2,2,0,0,0-2.851,0l-5.7,5.768a2.053,2.053,0,0,0,0,2.883A2,2,0,0,0,460.164,248.6Zm0.9,42.618,5.7,5.769a2,2,0,0,0,2.851,0,2.055,2.055,0,0,0,0-2.883l-5.7-5.77a2,2,0,0,0-2.852,0A2.057,2.057,0,0,0,461.059,291.214Z" transform="translate(-363.344 -226.5)"/>
</svg>
