<svg xmlns="http://www.w3.org/2000/svg" width="92" height="87.97" viewBox="0 0 92 87.97">
  <defs>
    <style>
      .cls-1 {
        fill: #333;
        fill-rule: evenodd;
      }
    </style>
  </defs>
  <path id="_30" data-name="30" class="cls-1" d="M890.734,1060.92c-15.91,0-46,2.54-46,12.14s30.09,12.15,46,12.15,46-2.54,46-12.15S906.644,1060.92,890.734,1060.92Zm0,20.26c-27.175,0-42-5.36-42-8.12s14.825-8.11,42-8.11,42,5.36,42,8.11S917.91,1081.18,890.734,1081.18Zm37.2,10.11a2.136,2.136,0,0,0-2.093,1.91c-0.178,1.8-11.243,6.53-35.112,6.53s-34.933-4.73-35.111-6.53a2,2,0,1,0-4,0c0,8.35,25.584,10.56,39.111,10.56s39.112-2.21,39.112-10.56A1.93,1.93,0,0,0,927.939,1091.29Zm-18.545,20.04a2.005,2.005,0,0,0-1.965,1.63c-1.077.96-6.9,2.67-16.695,2.67s-15.617-1.71-16.7-2.67a2,2,0,0,0-3.965.38c0,6.01,17.211,6.31,20.66,6.31s20.66-.3,20.66-6.31A2,2,0,0,0,909.394,1111.33Zm-7.133,16.19a1.979,1.979,0,0,0-2.743.69l-8.784,14.73-8.761-14.7a2,2,0,0,0-2.745-.69,2.03,2.03,0,0,0-.685,2.77l10.476,17.57a2,2,0,0,0,3.43,0l10.5-17.61A2.017,2.017,0,0,0,902.261,1127.52Z" transform="translate(-844.719 -1060.91)"/>
</svg>
