<svg xmlns="http://www.w3.org/2000/svg" width="95.907" height="76" viewBox="0 0 95.907 76">
  <defs>
    <style>
      .cls-1 {
        fill: #333;
        fill-rule: evenodd;
      }
    </style>
  </defs>
  <path id="_4" data-name="4" class="cls-1" d="M551.509,312.5h48.449a22.169,22.169,0,0,0,22.206-22.082,21.78,21.78,0,0,0-4.707-13.427,23.044,23.044,0,0,0,7.771-17.237,23.477,23.477,0,0,0-45.683-7.4,22.052,22.052,0,0,0-21.314,17.04,21.872,21.872,0,0,0-6.722-1.061A22.082,22.082,0,1,0,551.509,312.5Zm50.243-72a19.37,19.37,0,0,1,19.439,19.255,19.083,19.083,0,0,1-6.472,14.305,22.083,22.083,0,0,0-13.575-5.691,22.194,22.194,0,0,0-17.417-15.655A19.524,19.524,0,0,1,601.752,240.5Zm-50.243,31.838a18.11,18.11,0,0,1,7.464,1.631,2.052,2.052,0,0,0,1.833-.084,2,2,0,0,0,1.008-1.52,18.134,18.134,0,0,1,35.763-1.593,2.013,2.013,0,0,0,1.979,1.6,1.15,1.15,0,0,0,.4-0.039,18.082,18.082,0,1,1,0,36.163H551.509A18.082,18.082,0,1,1,551.509,272.337Z" transform="translate(-529.312 -236.5)"/>
</svg>
