<svg xmlns="http://www.w3.org/2000/svg" width="84" height="68" viewBox="0 0 84 68">
  <defs>
    <style>
      .cls-1 {
        fill: #333;
        fill-rule: evenodd;
      }
    </style>
  </defs>
  <path id="_5" data-name="5" class="cls-1" d="M705.5,274.5a2,2,0,0,0,2-2,28,28,0,0,1,56,0,2,2,0,0,0,4,0,32,32,0,0,0-64,0A2,2,0,0,0,705.5,274.5Zm51.524,25.679a2,2,0,1,0-2.688-2.961,28,28,0,0,1-37.678-.006,2,2,0,0,0-2.691,2.958A32,32,0,0,0,757.024,300.179ZM696,284h80a2,2,0,0,0,0-4H696A2,2,0,0,0,696,284Zm68,4H708a2,2,0,0,0,0,4h56A2,2,0,0,0,764,288Z" transform="translate(-694 -240.5)"/>
</svg>
