<svg xmlns="http://www.w3.org/2000/svg" width="95.907" height="96.062" viewBox="0 0 95.907 96.062">
  <defs>
    <style>
      .cls-1 {
        fill: #333;
        fill-rule: evenodd;
      }
    </style>
  </defs>
  <path id="_6" data-name="6" class="cls-1" d="M861.573,308.548l-10.082,9.893a1.954,1.954,0,0,0,0,2.8,2.045,2.045,0,0,0,2.854,0l10.083-9.894a1.955,1.955,0,0,0,0-2.8A2.045,2.045,0,0,0,861.573,308.548Zm16.15,0-10.082,9.893a1.956,1.956,0,0,0,0,2.8,2.047,2.047,0,0,0,2.855,0l10.082-9.894a1.953,1.953,0,0,0,0-2.8A2.045,2.045,0,0,0,877.723,308.548Zm16.151,0-10.082,9.893a1.954,1.954,0,0,0,0,2.8,2.045,2.045,0,0,0,2.854,0l10.083-9.894a1.955,1.955,0,0,0,0-2.8A2.045,2.045,0,0,0,893.874,308.548Zm16.15,0-10.082,9.893a1.954,1.954,0,0,0,0,2.8,2.047,2.047,0,0,0,2.855,0l10.082-9.894a1.955,1.955,0,0,0,0-2.8A2.045,2.045,0,0,0,910.024,308.548Zm-44.516-7.515h48.451a22.068,22.068,0,0,0,22.207-21.874,21.449,21.449,0,0,0-4.71-13.3,22.722,22.722,0,0,0,7.77-17.072,23.285,23.285,0,0,0-23.473-23.036,23.562,23.562,0,0,0-22.208,15.71,22.01,22.01,0,0,0-21.318,16.879A21.924,21.924,0,1,0,865.508,301.033Zm50.245-71.323a19.278,19.278,0,0,1,19.435,19.073,18.822,18.822,0,0,1-6.469,14.17,22.176,22.176,0,0,0-13.577-5.636,22.118,22.118,0,0,0-17.418-15.509A19.529,19.529,0,0,1,915.753,229.71Zm-50.245,31.538a18.265,18.265,0,0,1,7.464,1.615,2.055,2.055,0,0,0,1.83-.083,1.975,1.975,0,0,0,1.009-1.5,18.162,18.162,0,0,1,35.763-1.579,2.009,2.009,0,0,0,1.979,1.591,1.633,1.633,0,0,0,.406-0.039,17.913,17.913,0,1,1,0,35.823H865.508A17.913,17.913,0,1,1,865.508,261.248Z" transform="translate(-843.312 -225.75)"/>
</svg>
