<svg xmlns="http://www.w3.org/2000/svg" width="107.844" height="107.937" viewBox="0 0 107.844 107.937">
  <defs>
    <style>
      .cls-1 {
        fill: #333;
        fill-rule: evenodd;
      }
    </style>
  </defs>
  <path id="_8" data-name="8" class="cls-1" d="M246.565,512.455l-19.411,19.651a2.03,2.03,0,0,0,0,2.847,1.971,1.971,0,0,0,2.813,0l86.832-87.9a2.03,2.03,0,0,0,0-2.847,1.971,1.971,0,0,0-2.813,0L291.469,467a31.349,31.349,0,0,0-21.375-8.4A32.264,32.264,0,0,0,246.565,512.455Zm23.529-49.833a27.433,27.433,0,0,1,18.562,7.223l-39.281,39.766A28.237,28.237,0,0,1,270.094,462.622Zm-0.89-14.888a2,2,0,0,0,1.99-2.013v-16.11a1.99,1.99,0,1,0-3.979,0v16.11A2,2,0,0,0,269.2,447.734Zm-57.683,46.315h15.913a2.014,2.014,0,0,0,0-4.028H211.521A2.014,2.014,0,0,0,211.521,494.049Zm26.888-33.137a1.97,1.97,0,0,0,2.812,0,2.031,2.031,0,0,0,0-2.848l-11.254-11.39a1.973,1.973,0,0,0-2.813,0,2.031,2.031,0,0,0,0,2.848Z" transform="translate(-209.531 -427.594)"/>
</svg>
