<svg xmlns="http://www.w3.org/2000/svg" width="51.719" height="64" viewBox="0 0 51.719 64">
  <defs>
    <style>
      .cls-1 {
        fill: #333;
        fill-rule: evenodd;
      }
    </style>
  </defs>
  <path id="_9" data-name="9" class="cls-1" d="M428.4,513.921a33.824,33.824,0,0,0,17.659-4.964,1.966,1.966,0,0,0,0-3.379,27.455,27.455,0,0,1,0-47.313,1.965,1.965,0,0,0,0-3.378,33.816,33.816,0,0,0-17.659-4.965c-18.253,0-33.1,14.355-33.1,32S410.15,513.921,428.4,513.921Zm0-60a29.625,29.625,0,0,1,12.68,2.847,31.287,31.287,0,0,0,0,50.305,29.626,29.626,0,0,1-12.68,2.848c-15.97,0-28.966-12.561-28.966-28S412.433,453.922,428.4,453.922Z" transform="translate(-395.312 -449.906)"/>
</svg>
